HIERARCHY
ROOT Hips
{
    OFFSET   0.000000   0.000000   0.000000
    CHANNELS 6 Xposition Yposition Zposition Zrotation Xrotation Yrotation
    JOINT Chest
    {
        OFFSET   0.000000   8.007230   0.000000
        CHANNELS 3 Zrotation Xrotation Yrotation
        JOINT Chest2
        {
            OFFSET   0.000000  22.077100   0.000000
            CHANNELS 3 Zrotation Xrotation Yrotation
            JOINT Neck
            {
                OFFSET   0.000000  23.255100   0.000000
                CHANNELS 3 Zrotation Xrotation Yrotation
                JOINT Head
                {
                    OFFSET   0.000000  14.370100   1.956600
                    CHANNELS 3 Zrotation Xrotation Yrotation
                    End Site
                    {
                        OFFSET   0.000000  19.566000   0.000000
                    }
                }
            }
            JOINT LeftCollar
            {
                OFFSET   3.911900  19.017000  -0.467063
                CHANNELS 3 Zrotation Xrotation Yrotation
                JOINT LeftShoulder
                {
                    OFFSET  10.383700   0.000000   0.000000
                    CHANNELS 3 Zrotation Xrotation Yrotation
                    JOINT LeftElbow
                    {
                        OFFSET  26.662100   0.001193   0.000980
                        CHANNELS 3 Zrotation Xrotation Yrotation
                        JOINT LeftWrist
                        {
                            OFFSET  28.869000  -0.000059  -0.000082
                            CHANNELS 3 Zrotation Xrotation Yrotation
                            JOINT LeftFinger0
                            {
                                OFFSET   2.044650  -2.323450   3.252850
                                CHANNELS 3 Zrotation Xrotation Yrotation
                                JOINT LeftFinger01
                                {
                                    OFFSET   3.088130   0.000000   0.000000
                                    CHANNELS 3 Zrotation Xrotation Yrotation
                                    JOINT LeftFinger02
                                    {
                                        OFFSET   2.639460   0.000000   0.000000
                                        CHANNELS 3 Zrotation Xrotation Yrotation
                                        End Site
                                        {
                                            OFFSET   2.582190   0.000000   0.000000
                                        }
                                    }
                                }
                            }
                            JOINT LeftFinger1
                            {
                                OFFSET   8.364480   0.000000   3.252850
                                CHANNELS 3 Zrotation Xrotation Yrotation
                                JOINT LeftFinger11
                                {
                                    OFFSET   4.646930   0.000000   0.000000
                                    CHANNELS 3 Zrotation Xrotation Yrotation
                                    JOINT LeftFinger12
                                    {
                                        OFFSET   2.323470   0.000000   0.000000
                                        CHANNELS 3 Zrotation Xrotation Yrotation
                                        End Site
                                        {
                                            OFFSET   2.273050   0.000000   0.000000
                                        }
                                    }
                                }
                            }
                            JOINT LeftFinger2
                            {
                                OFFSET   8.364490   0.000016   1.078090
                                CHANNELS 3 Zrotation Xrotation Yrotation
                                JOINT LeftFinger21
                                {
                                    OFFSET   5.111610   0.000000   0.000000
                                    CHANNELS 3 Zrotation Xrotation Yrotation
                                    JOINT LeftFinger22
                                    {
                                        OFFSET   2.788150   0.000016   0.000000
                                        CHANNELS 3 Zrotation Xrotation Yrotation
                                        End Site
                                        {
                                            OFFSET   2.727660   0.000000   0.000000
                                        }
                                    }
                                }
                            }
                            JOINT LeftFinger3
                            {
                                OFFSET   7.899780   0.000015  -1.078090
                                CHANNELS 3 Zrotation Xrotation Yrotation
                                JOINT LeftFinger31
                                {
                                    OFFSET   4.646930   0.000000   0.000000
                                    CHANNELS 3 Zrotation Xrotation Yrotation
                                    JOINT LeftFinger32
                                    {
                                        OFFSET   2.323470   0.000000   0.000000
                                        CHANNELS 3 Zrotation Xrotation Yrotation
                                        End Site
                                        {
                                            OFFSET   2.273050   0.000000   0.000000
                                        }
                                    }
                                }
                            }
                            JOINT LeftFinger4
                            {
                                OFFSET   7.435090   0.000000  -3.252850
                                CHANNELS 3 Zrotation Xrotation Yrotation
                                JOINT LeftFinger41
                                {
                                    OFFSET   3.717550   0.000000   0.000000
                                    CHANNELS 3 Zrotation Xrotation Yrotation
                                    JOINT LeftFinger42
                                    {
                                        OFFSET   1.858770   0.000000   0.000000
                                        CHANNELS 3 Zrotation Xrotation Yrotation
                                        End Site
                                        {
                                            OFFSET   1.818440   0.000000   0.000000
                                        }
                                    }
                                }
                            }
                        }
                    }
                }
            }
            JOINT RightCollar
            {
                OFFSET  -3.911910  19.017000  -0.467062
                CHANNELS 3 Zrotation Xrotation Yrotation
                JOINT RightShoulder
                {
                    OFFSET -10.383700   0.000014   0.000000
                    CHANNELS 3 Zrotation Xrotation Yrotation
                    JOINT RightElbow
                    {
                        OFFSET -26.662100   0.001225   0.001091
                        CHANNELS 3 Zrotation Xrotation Yrotation
                        JOINT RightWrist
                        {
                            OFFSET -28.869000  -0.000020  -0.000085
                            CHANNELS 3 Zrotation Xrotation Yrotation
                            JOINT RightFinger0
                            {
                                OFFSET  -2.044650  -2.323490   3.252850
                                CHANNELS 3 Zrotation Xrotation Yrotation
                                JOINT RightFinger01
                                {
                                    OFFSET  -3.088130   0.000000   0.000000
                                    CHANNELS 3 Zrotation Xrotation Yrotation
                                    JOINT RightFinger02
                                    {
                                        OFFSET  -2.639460   0.000000   0.000000
                                        CHANNELS 3 Zrotation Xrotation Yrotation
                                        End Site
                                        {
                                            OFFSET  -2.582190   0.000000   0.000000
                                        }
                                    }
                                }
                            }
                            JOINT RightFinger1
                            {
                                OFFSET  -8.364480   0.000000   3.252850
                                CHANNELS 3 Zrotation Xrotation Yrotation
                                JOINT RightFinger11
                                {
                                    OFFSET  -4.646930   0.000000   0.000000
                                    CHANNELS 3 Zrotation Xrotation Yrotation
                                    JOINT RightFinger12
                                    {
                                        OFFSET  -2.323470   0.000000   0.000000
                                        CHANNELS 3 Zrotation Xrotation Yrotation
                                        End Site
                                        {
                                            OFFSET  -2.273050   0.000000   0.000000
                                        }
                                    }
                                }
                            }
                            JOINT RightFinger2
                            {
                                OFFSET  -8.364480   0.000000   1.078090
                                CHANNELS 3 Zrotation Xrotation Yrotation
                                JOINT RightFinger21
                                {
                                    OFFSET  -5.111620   0.000000   0.000000
                                    CHANNELS 3 Zrotation Xrotation Yrotation
                                    JOINT RightFinger22
                                    {
                                        OFFSET  -2.788160   0.000000   0.000000
                                        CHANNELS 3 Zrotation Xrotation Yrotation
                                        End Site
                                        {
                                            OFFSET  -2.727660   0.000000   0.000000
                                        }
                                    }
                                }
                            }
                            JOINT RightFinger3
                            {
                                OFFSET  -7.899780   0.000000  -1.078090
                                CHANNELS 3 Zrotation Xrotation Yrotation
                                JOINT RightFinger31
                                {
                                    OFFSET  -4.646930   0.000000   0.000000
                                    CHANNELS 3 Zrotation Xrotation Yrotation
                                    JOINT RightFinger32
                                    {
                                        OFFSET  -2.323470   0.000000   0.000000
                                        CHANNELS 3 Zrotation Xrotation Yrotation
                                        End Site
                                        {
                                            OFFSET  -2.273050   0.000000   0.000000
                                        }
                                    }
                                }
                            }
                            JOINT RightFinger4
                            {
                                OFFSET  -7.435090   0.000000  -3.252850
                                CHANNELS 3 Zrotation Xrotation Yrotation
                                JOINT RightFinger41
                                {
                                    OFFSET  -3.717550   0.000000   0.000000
                                    CHANNELS 3 Zrotation Xrotation Yrotation
                                    JOINT RightFinger42
                                    {
                                        OFFSET  -1.858760   0.000000   0.000000
                                        CHANNELS 3 Zrotation Xrotation Yrotation
                                        End Site
                                        {
                                            OFFSET  -1.818440   0.000000   0.000000
                                        }
                                    }
                                }
                            }
                        }
                    }
                }
            }
        }
    }
    JOINT LeftHip
    {
        OFFSET   9.783030   0.000000   0.000000
        CHANNELS 3 Zrotation Xrotation Yrotation
        JOINT LeftKnee
        {
            OFFSET   0.000063 -41.789100   0.000608
            CHANNELS 3 Zrotation Xrotation Yrotation
            JOINT LeftAnkle
            {
                OFFSET   0.000048 -41.133200  -0.000184
                CHANNELS 3 Zrotation Xrotation Yrotation
                JOINT LeftToe
                {
                    OFFSET   0.000000  -6.358960  14.674500
                    CHANNELS 3 Zrotation Xrotation Yrotation
                    End Site
                    {
                        OFFSET   0.000000   0.000000   3.913200
                    }
                }
            }
        }
    }
    JOINT RightHip
    {
        OFFSET  -9.783030   0.000000   0.000000
        CHANNELS 3 Zrotation Xrotation Yrotation
        JOINT RightKnee
        {
            OFFSET   0.000071 -41.789100   0.001239
            CHANNELS 3 Zrotation Xrotation Yrotation
            JOINT RightAnkle
            {
                OFFSET   0.000037 -41.133200  -0.000166
                CHANNELS 3 Zrotation Xrotation Yrotation
                JOINT RightToe
                {
                    OFFSET   0.000000  -6.358960  14.674500
                    CHANNELS 3 Zrotation Xrotation Yrotation
                    End Site
                    {
                        OFFSET   0.000000   0.000000   3.913200
                    }
                }
            }
        }
    }
}
MOTION
Frames: 5
Frame Time:   0.016667
 -0.547686  89.828400   1.414440  -1.478030 -12.725700  -4.879230   0.277893   8.935810  -1.846050   0.867778  17.857500  -3.807890   1.152360  -2.937330   0.058198   1.887610  -5.949120  17.605900  -9.406300  -3.746760   6.328630 -66.984000  12.330500 -21.862900   1.918480 -11.042500 -45.144100 -32.576000 -49.568200 -20.239900  50.352100  40.423400 -79.275300 -21.587300   0.000606   0.000317  -5.793660  -0.000814   0.005746 -21.693000   3.487560  -8.710270 -17.963700   0.008309   0.000000 -12.574600   0.004746  -0.005761 -43.179400  -3.562370   3.796230 -54.481400   0.001607   0.002456 -38.274200   0.001968   0.000442 -20.827300  -1.852770   4.872200 -20.907000   0.005049  -0.003694 -13.924100   0.005028  -0.003712 -20.964700  -5.232970  13.395400 -32.373800   0.006480   0.003414 -21.561000   0.007181   0.000775  13.403900   0.630910  14.989900  63.047900  -0.426410  21.506300  -6.540960 -12.952200  37.871300 -53.461900 -83.326400 -20.676500 -33.363800  24.136800  58.638400  34.615500   0.000495  -0.000317  12.307800  -0.001366   0.000538  24.993900   1.339360   2.872470  20.478400   0.000229  -0.001233  14.334900   0.008540  -0.001923  19.034700   0.286110   0.823295  19.036400   0.009841   0.010042  12.678200   0.008880  -0.001170  23.812200  -1.029760  -2.333710  23.834000   0.006096   0.000607  15.873400   0.006254   0.000392  24.825300  -2.513080  -5.408210  37.419300   0.008936  -0.000595  24.921300   0.000895   0.000736   2.152880  12.858500   3.011350  -0.342279   3.568620  19.516900  -6.163900  -4.438150   2.837250   0.000000   0.000000   0.000000   2.262490  11.956900  -6.879680  -0.409355   3.329280 -10.087500  -6.871730  -0.963994   5.748930   0.000000   0.000000  -0.000000
 -0.530343  89.800600   1.453860  -1.453500 -12.647900  -4.782580   0.262744   8.882150  -1.821560   0.830455  17.751100  -3.753890   1.090320  -2.905250   0.055354   1.804310  -5.884650  17.556600  -9.341280  -3.703010   6.338010 -66.836600  12.357800 -21.232900   2.024060 -10.888800 -45.271600 -32.356800 -49.246000 -19.861100  51.082500  40.994700 -79.696200 -21.656500   0.000593   0.000337  -5.828230  -0.000809   0.005753 -22.023400   3.464340  -8.483160 -18.226900   0.008853   0.000000 -12.758800   0.004637  -0.005753 -44.846600  -3.559210   3.577040 -54.465000   0.001354   0.002386 -38.668800   0.001842  -0.000243 -21.447800  -1.853570   4.703610 -21.525300   0.004851  -0.003689 -14.335900   0.005021  -0.003710 -21.474300  -5.258050  13.101200 -33.124000   0.005972   0.003418 -22.060600   0.006908   0.000776  13.391500   0.709192  14.875600  63.065700  -0.437923  20.973900  -6.760100 -12.876700  37.952500 -46.842500 -82.425900 -14.212700 -33.285700  24.438700  59.444600  34.669300   0.000906  -0.000611  12.334700  -0.001490   0.000464  25.301500   1.395120   2.948490  20.731600   0.000266  -0.001226  14.512100   0.008335  -0.001918  19.364900   0.300228   0.851815  19.365800   0.009374   0.010812  12.897600   0.008577  -0.001170  24.024800  -1.011770  -2.269440  24.044900   0.006407   0.000745  16.013900   0.007180   0.000651  24.848000  -2.430350  -5.231790  37.442700   0.011546  -0.000644  24.936800   0.000751   0.000608   2.156350  12.805200   3.026410  -0.335760   3.567540  19.437400  -6.177220  -4.449410   2.809820   0.000000   0.000000   0.000000   2.193650  11.949100  -6.943550  -0.315108   3.252510 -10.012800  -6.904610  -0.934533   5.660020   0.000000   0.000000  -0.000000
 -0.515175  89.775200   1.486560  -1.425030 -12.578100  -4.699350   0.239085   8.838450  -1.787400   0.775094  17.664800  -3.679590   1.050230  -2.826360   0.051921   1.750810  -5.725340  17.506500  -9.269740  -3.774610   6.291050 -66.535300  12.602100 -20.783700   2.161150 -10.866600 -45.099100 -31.411000 -48.737400 -18.917600  51.938700  41.642100 -80.297500 -21.723100   0.000603   0.000316  -5.861570  -0.000811   0.005751 -22.166900   3.421430  -8.315140 -18.336800   0.009483  -0.000000 -12.835700   0.004567  -0.005759 -46.024100  -3.550710   3.423570 -54.444000   0.001148   0.002321 -38.949300   0.001750  -0.000935 -21.726200  -1.837250   4.588440 -21.801200   0.004701  -0.003692 -14.519700   0.005026  -0.003710 -21.781500  -5.208060  12.778700 -33.553800   0.005509   0.003418 -22.346800   0.006701   0.000774  13.377200   0.661886  14.796300  62.730400   0.142115  20.582200  -6.984970 -13.246100  37.663600 -43.047800 -81.257300 -10.467500 -33.204100  24.694800  60.144800  34.699000   0.001335  -0.000859  12.349500  -0.001612   0.000413  25.692200   1.452450   3.000530  21.051400   0.000349  -0.001219  14.735900   0.008148  -0.001922  19.899400   0.298910   0.842132  19.899200   0.008908   0.009275  13.252900   0.008267  -0.001165  24.466400  -1.015160  -2.236650  24.485500   0.006777   0.000934  16.307400   0.008455   0.000888  25.122100  -2.399350  -5.071170  37.852300   0.013937  -0.000665  25.209600   0.000622   0.000510   2.155220  12.776100   3.026370  -0.332508   3.535010  19.377600  -6.185810  -4.453840   2.789170   0.000000   0.000000   0.000000   2.121940  11.958800  -6.967850  -0.227243   3.156870  -9.979320  -6.926540  -0.905725   5.584330   0.000000   0.000000   0.000000
 -0.501140  89.754700   1.513640  -1.395560 -12.503400  -4.623130   0.209384   8.793120  -1.743440   0.705866  17.575500  -3.584380   1.026690  -2.728590   0.048931   1.697560  -5.527600  17.450900  -9.190970  -3.903560   6.216670 -66.127700  13.049200 -20.472600   2.344710 -10.910500 -44.731200 -29.844300 -48.055500 -17.421900  52.745000  42.265000 -80.898700 -21.838600   0.000614   0.000280  -5.919310  -0.000814   0.005748 -22.276600   3.354630  -8.111550 -18.416900   0.010167  -0.000000 -12.891800   0.004523  -0.005765 -46.916300  -3.540670   3.310670 -54.419800   0.000980   0.002254 -39.148800   0.001684  -0.001620 -21.835200  -1.810120   4.505610 -21.907400   0.004585  -0.003696 -14.590400   0.005033  -0.003711 -21.963800  -5.108990  12.439600 -33.787300   0.005090   0.003418 -22.502300   0.006540   0.000771  13.347900   0.574177  14.731900  62.221500   1.048370  20.284300  -7.270910 -13.666900  37.093200 -40.860300 -79.964200  -8.299100 -33.133200  24.938400  60.732400  34.746200   0.001768  -0.001109  12.373100  -0.001728   0.000364  26.116800   1.483400   3.021430  21.398200   0.000469  -0.001215  14.978700   0.007973  -0.001925  20.497200   0.289684   0.774347  20.494900   0.008443   0.007090  13.649600   0.007960  -0.001160  24.988500  -1.038730  -2.228230  25.005900   0.007202   0.001143  16.654000   0.009878   0.001021  25.587700  -2.394920  -4.989170  38.535500   0.016172  -0.000669  25.664600   0.000507   0.000438   2.148670  12.745900   3.026060  -0.328600   3.482980  19.328900  -6.190150  -4.454530   2.772310   0.000000   0.000000   0.000000   2.051990  11.969100  -6.971550  -0.143597   3.056160  -9.971290  -6.941420  -0.878547   5.520090   0.000000   0.000000   0.000000
 -0.490542  89.741400   1.534330  -1.367460 -12.410000  -4.549460   0.172889   8.737100  -1.689520   0.620958  17.465100  -3.467720   1.016880  -2.629920   0.047830   1.678230  -5.327960  17.384400  -9.098680  -4.032330   6.166170 -65.697700  13.578800 -20.300300   2.577310 -10.990000 -44.227700 -27.728700 -47.083900 -15.443800  53.259900  42.749900 -81.307400 -22.084600   0.000609   0.000236  -6.042340  -0.000806   0.005760 -22.559500   3.246160  -7.747250 -18.633000   0.010878  -0.000000 -13.043100   0.004495  -0.005764 -47.727200  -3.532220   3.209130 -54.393600   0.000837   0.002184 -39.328200   0.001634  -0.002299 -21.929400  -1.784320   4.429580 -21.999000   0.004485  -0.003694 -14.651400   0.005033  -0.003715 -22.067700  -5.005560  12.124200 -33.908700   0.004713   0.003418 -22.583200   0.006408   0.000768  13.311400   0.483697  14.678600  61.899900   1.658170  20.035200  -7.584370 -13.758900  36.459500 -39.170100 -78.763400  -6.616650 -33.144300  25.251000  61.133800  34.840600   0.002193  -0.001405  12.420300  -0.001828   0.000302  26.589800   1.436100   2.882010  21.781600   0.000629  -0.001215  15.247100   0.007800  -0.001919  21.083100   0.208931   0.530895  21.075300   0.007975   0.006210  14.036100   0.007662  -0.001170  25.521700  -1.125770  -2.348740  25.543300   0.007427   0.001342  17.011900   0.011333   0.001021  26.047200  -2.465930  -5.055870  39.225100   0.018610  -0.000668  26.123900   0.000407   0.000391   2.139730  12.691000   3.017830  -0.318953   3.437190  19.290200  -6.191750  -4.449940   2.756550   0.000000   0.000000   0.000000   1.990200  11.960300  -6.951890  -0.067824   2.959170  -9.999890  -6.950260  -0.855633   5.474920   0.000000   0.000000   0.000000
